<svg width="327" height="222" viewBox="0 0 327 222" fill="none" xmlns="http://www.w3.org/2000/svg">
<g clip-path="url(#clip0_2_319)">
<path d="M10.08 99.4677C5.26606 90.7695 3.88305 80.6085 6.25011 70.9961C12.9789 43.7522 32.0218 -4.07483 82.4216 2.69044C152.37 12.0939 172.716 14.4448 201.413 5.61596C230.11 -3.21284 279.739 -3.18672 295.271 16.7695C304.686 28.8634 336.521 83.1161 316.202 101.923C295.882 120.73 326.043 157.926 326.973 177.673C327.904 197.42 298.888 199.98 262.398 200.581C225.908 201.182 13.9364 194.338 13.9364 194.338C13.9364 194.338 -13.2449 148.313 8.29802 131.884C21.6227 121.696 15.6386 109.524 10.08 99.4677V99.4677Z" fill="white" fill-opacity="0.18"/>
<path d="M31.2771 172.815C26.6228 172.658 9.14909 175.009 8.11184 175.897C7.84588 176.132 4.01603 187.312 20.8514 201.73C47.7667 224.821 120.162 225.605 143.619 216.828C177.662 204.081 214.977 227.982 292.292 218.839C317 215.914 333.516 178.744 322.293 173.912C315.564 171.038 307.505 178.666 300.75 175.322C292.957 171.456 277.185 169.053 267.425 172.005C267.026 172.109 266.786 172.527 266.893 172.919C266.999 173.285 267.371 173.52 267.77 173.442L262.637 175.061C256.919 179.24 258.196 173.677 244.791 172.971L205.269 172.005C191.147 172.423 136.758 174.774 115.481 173.938H103.778C95.959 172.971 75.7193 172.527 74.9746 172.501L31.2771 172.815V172.815Z" fill="#FED2AA"/>
<path d="M47.3678 115.95H59.3361C59.3361 115.95 63.0595 116.472 63.3255 119.084C63.5915 121.696 63.2457 155.679 63.2457 155.679L87.2621 155.392C87.2621 155.392 89.6557 156.176 89.6557 158.788C89.6557 161.4 87.794 162.445 87.794 162.445L51.304 162.288L47.3678 115.95" fill="#BC8853"/>
<path d="M47.3678 115.95C47.3678 115.95 43.9103 116.472 43.6443 121.696C43.3784 126.921 43.6443 162.184 43.6443 162.184L80.1077 162.445C80.6396 162.445 81.1449 162.236 81.4907 161.844C82.0226 161.269 82.7407 160.381 82.7407 159.571C82.7407 158.161 82.2088 155.915 79.2832 155.915C76.3576 155.915 51.6232 155.653 51.6232 155.653L51.0913 119.084C51.0913 119.11 51.0913 116.472 47.3678 115.95V115.95Z" fill="#AA733E"/>
<path d="M62.634 162.366C62.634 162.366 61.9957 165.318 64.1234 165.318H67.5809C67.8469 165.318 68.9905 163.751 68.2724 162.445C67.5543 161.139 62.634 162.366 62.634 162.366Z" fill="#BAC6F2"/>
<path d="M64.1234 165.344L64.3893 194.834H66.7828L66.9158 165.161L64.1234 165.344Z" fill="#E9EDFA"/>
<path d="M54.2828 194.312L77.1555 194.573V196.663L54.2828 196.402V194.312Z" fill="#E9EDFA"/>
<path d="M99.4963 196.924L98.4325 142.332H104.018L103.752 196.924H99.4963ZM221.041 142.593H227.158L225.03 197.185L221.041 197.447V142.593Z" fill="#AA733E"/>
<path d="M94.1771 132.928L94.443 141.809L229.818 142.593L229.977 132.667L94.1771 132.928Z" fill="#C89B6E"/>
<path d="M85.9323 127.965L238.062 128.488V133.451L86.1982 133.19L85.9323 127.965Z" fill="#AA733E"/>
<path d="M272.026 174.408L272.292 196.611L302.611 196.088V174.408H272.026Z" fill="#E9EDFA"/>
<path d="M295.962 196.193L295.989 174.408H294.047" fill="white"/>
<path d="M279.898 174.356C279.898 174.356 279.18 161.191 285.51 157.456C291.84 153.72 286.414 144.996 287.691 140.373C288.967 135.749 294.925 132.354 294.925 128.801C294.925 125.249 294.393 115.271 301.255 112.267C308.117 109.263 313.569 113.155 311.415 119.032C309.26 124.909 307.611 131.675 305.244 133.79C302.877 135.906 303.808 139.302 304.154 143.403C304.5 147.504 301.255 154.243 299.446 156.75C297.638 159.258 299.446 163.516 298.914 167.956C298.914 167.956 297.93 174.173 296.92 174.382C295.909 174.591 279.898 174.356 279.898 174.356V174.356Z" fill="#BAC6F2"/>
<path d="M294.047 174.774C294.047 174.774 294.845 168.505 287.771 166.729C280.696 164.952 286.76 160.799 285.35 158.605C283.941 156.411 277.265 154.791 277.265 153.12C277.265 151.448 277.877 146.694 270.191 145.257C262.504 143.821 256.44 145.675 258.861 148.47C261.281 151.265 263.116 154.478 265.722 155.497C268.329 156.515 267.345 158.109 266.946 160.068C266.547 162.027 270.191 165.24 272.212 166.415C274.233 167.591 272.212 169.628 272.824 171.744C272.824 171.744 273.941 174.695 275.031 174.8C276.122 174.904 294.047 174.774 294.047 174.774V174.774Z" fill="url(#paint0_linear_2_319)"/>
<path d="M288.143 174.748C288.143 174.748 287.584 168.191 292.505 166.337C297.425 164.482 293.223 160.146 294.18 157.847C295.138 155.549 299.819 153.877 299.819 152.101C299.819 150.325 299.393 145.388 304.739 143.873C310.085 142.358 314.314 144.317 312.611 147.242C310.909 150.168 309.659 153.511 307.824 154.582C305.989 155.653 306.707 157.325 306.973 159.362C307.239 161.4 304.712 164.769 303.303 165.997C301.893 167.225 303.303 169.367 302.877 171.561C302.877 171.561 302.106 174.643 301.335 174.748C300.563 174.852 288.143 174.748 288.143 174.748V174.748Z" fill="#BAC6F2"/>
<path d="M117.529 48.5062L117.715 98.6057L259.605 98.3967V48.898L117.529 48.5062Z" fill="white"/>
<path d="M142.901 64.1786V70.3431L201.014 70.0819V64.1786H142.901ZM142.901 81.3399V87.5044L201.014 87.2432V81.3399H142.901Z" fill="#270E20"/>
<path d="M133.087 72.485C135.496 72.485 137.449 70.5671 137.449 68.2012C137.449 65.8353 135.496 63.9174 133.087 63.9174C130.678 63.9174 128.725 65.8353 128.725 68.2012C128.725 70.5671 130.678 72.485 133.087 72.485Z" fill="#270E20"/>
<path d="M133.087 88.497C135.496 88.497 137.449 86.5791 137.449 84.2132C137.449 81.8473 135.496 79.9294 133.087 79.9294C130.678 79.9294 128.725 81.8473 128.725 84.2132C128.725 86.5791 130.678 88.497 133.087 88.497Z" fill="#270E20"/>
<path d="M216.892 70.9177H251.387V87.4522H216.892V70.9177Z" fill="#E9EDFA"/>
<path d="M216.333 86.6685C216.333 86.6685 219.02 80.8959 221.573 81.5228C224.126 82.1497 224.764 84.7878 226.679 83.6647C228.594 82.5415 229.844 77.9965 231.706 77.2651C234.366 76.2464 235.243 77.3696 238.834 79.3809C242.424 81.3922 243.94 80.9481 245.403 79.4592C246.759 78.101 249.259 74.4179 252.025 72.7723" stroke="#BAC6F2" stroke-width="3" stroke-linecap="round" stroke-linejoin="round"/>
<path d="M55.1339 49.1592H106.465V97.0907H55.1339V49.1592Z" fill="white"/>
<path d="M80.1343 91.2135C87.4639 91.2135 93.4058 85.3779 93.4058 78.1793C93.4058 70.9807 87.4639 65.1451 80.1343 65.1451C72.8046 65.1451 66.8628 70.9807 66.8628 78.1793C66.8628 85.3779 72.8046 91.2135 80.1343 91.2135Z" stroke="#270E20" stroke-width="6" stroke-linecap="round" stroke-linejoin="round"/>
<path d="M58.5116 53.3124H71.5703V56.3424H58.5116V53.3124ZM58.5116 58.0663H71.5703V61.0963H58.5116V58.0663Z" fill="#270E20"/>
<path d="M96.6771 120.181H137.183C137.183 120.181 138.699 120.103 138.699 118.379V114.957H95.0813V119.11C95.2941 119.764 95.9324 120.208 96.6771 120.181Z" fill="#270E20"/>
<path d="M95.0813 89.0978L95.0547 116.263L138.699 115.872V88.3142C138.699 88.3142 138.965 86.7469 137.263 86.7469H96.7303C96.7303 86.7469 94.8952 86.7469 95.0813 89.0978ZM113.433 127.469V119.92L119.816 120.181V126.816L113.433 127.469Z" fill="#270E20"/>
<path d="M103.3 126.712H129.816L129.843 128.018H103.3V126.712Z" fill="#270E20"/>
<path d="M116.491 116.812C117.209 116.812 117.768 117.36 117.768 118.066C117.768 118.771 117.209 119.319 116.491 119.319C115.773 119.319 115.215 118.771 115.215 118.066C115.215 117.36 115.8 116.812 116.491 116.812Z" fill="white"/>
<path d="M96.411 88.053H137.369V114.435H96.411V88.053Z" fill="#F8F8FF"/>
<path d="M98.459 89.4112C98.8047 89.4112 99.0973 89.6986 99.0973 90.0381C99.0973 90.3777 98.8047 90.665 98.459 90.665C98.1133 90.665 97.8207 90.3777 97.8207 90.0381C97.8207 89.6986 98.1133 89.4112 98.459 89.4112Z" fill="#FA5F5D"/>
<path d="M100.64 89.4112C100.986 89.4112 101.278 89.6986 101.278 90.0381C101.278 90.3777 100.986 90.665 100.64 90.665C100.294 90.665 100.002 90.3777 100.002 90.0381C100.002 89.6986 100.294 89.4112 100.64 89.4112Z" fill="#FDBC4E"/>
<path d="M102.927 89.4112C103.273 89.4112 103.565 89.6986 103.565 90.0381C103.565 90.3777 103.273 90.665 102.927 90.665C102.581 90.665 102.289 90.3777 102.289 90.0381C102.289 89.6986 102.581 89.4112 102.927 89.4112Z" fill="#37CD58"/>
<path d="M111.837 94.0085C111.81 94.348 111.518 94.6093 111.172 94.5831H103.326C102.927 94.5831 102.528 94.3219 102.528 94.0085V92.833C102.528 92.5196 102.901 92.2323 103.326 92.2323H111.145C111.491 92.2061 111.81 92.4674 111.837 92.8069V94.0085Z" fill="url(#paint1_linear_2_319)"/>
<path d="M130.72 101.792C130.694 102.158 130.374 102.445 130.002 102.419H103.326C102.927 102.419 102.528 102.132 102.528 101.792V95.9937C102.528 95.6541 102.927 95.3668 103.326 95.3668H130.002C130.374 95.3406 130.694 95.628 130.72 95.9937V101.792Z" fill="url(#paint2_linear_2_319)"/>
<path d="M111.305 106.755C111.305 107.095 111.012 107.382 110.667 107.382H103.326C102.901 107.382 102.528 107.095 102.528 106.755V103.569C102.528 103.229 102.927 102.942 103.326 102.942H110.614C110.959 102.916 111.278 103.177 111.305 103.543V106.755Z" fill="url(#paint3_linear_2_319)"/>
<path d="M120.88 106.755C120.88 107.095 120.587 107.382 120.241 107.382H112.901C112.475 107.382 112.103 107.095 112.103 106.755V103.569C112.103 103.229 112.502 102.942 112.901 102.942H120.188C120.534 102.916 120.853 103.177 120.88 103.543V106.755Z" fill="url(#paint4_linear_2_319)"/>
<path d="M130.72 106.755C130.694 107.121 130.374 107.408 130.002 107.382H122.715C122.316 107.408 121.997 107.121 121.943 106.755V103.569C121.97 103.177 122.316 102.916 122.715 102.942H130.002C130.374 102.916 130.72 103.203 130.747 103.569L130.72 106.755Z" fill="url(#paint5_linear_2_319)"/>
<path d="M120.88 108.558C120.826 108.688 120.72 108.767 120.587 108.793C120.56 108.793 120.56 108.793 120.534 108.688H112.502C112.342 108.793 112.103 108.688 112.103 108.558V108.453C112.103 108.323 112.342 108.192 112.502 108.166H120.534C120.667 108.192 120.747 108.297 120.773 108.401C120.773 108.427 120.773 108.427 120.853 108.453L120.88 108.558V108.558ZM120.88 109.576C120.826 109.707 120.72 109.812 120.587 109.838C120.587 109.838 120.56 109.838 120.56 109.733H112.502C112.342 109.838 112.103 109.733 112.103 109.576V109.472C112.103 109.341 112.342 109.237 112.502 109.211H120.534C120.667 109.237 120.8 109.341 120.853 109.472L120.88 109.576ZM120.88 110.621C120.826 110.778 120.693 110.882 120.56 110.909V110.778H112.502C112.369 110.856 112.209 110.83 112.129 110.7C112.103 110.673 112.103 110.647 112.103 110.621V110.517C112.103 110.386 112.342 110.308 112.502 110.256H120.534C120.667 110.282 120.8 110.386 120.853 110.517L120.88 110.621ZM120.88 111.64C120.8 111.797 120.693 111.953 120.56 112.084H112.502C112.342 111.953 112.103 111.797 112.103 111.64V111.535C112.103 111.405 112.342 111.248 112.502 111.3H120.534C120.64 111.274 120.747 111.353 120.773 111.457V111.535L120.853 111.562L120.88 111.64V111.64ZM116.411 112.685C116.411 112.815 116.332 112.868 116.172 112.868H112.475C112.316 112.868 112.103 112.815 112.103 112.685V112.58C112.103 112.45 112.316 112.345 112.475 112.345H116.172C116.305 112.345 116.411 112.45 116.411 112.58V112.685ZM130.72 108.558C130.561 108.688 130.587 108.793 130.428 108.688H122.396C122.263 108.793 122.13 108.714 122.13 108.584L122.209 108.558V108.453C122.13 108.323 122.236 108.192 122.396 108.166H130.428C130.587 108.218 130.561 108.323 130.72 108.453V108.558ZM130.72 109.576C130.561 109.707 130.587 109.838 130.428 109.733H122.396C122.236 109.838 122.13 109.733 122.209 109.576V109.472C122.13 109.341 122.236 109.237 122.396 109.211H130.428C130.587 109.263 130.561 109.341 130.72 109.472V109.576ZM130.72 110.621C130.561 110.752 130.587 110.909 130.428 110.778H122.396C122.236 110.882 122.13 110.778 122.209 110.621V110.517C122.13 110.386 122.236 110.308 122.396 110.256H130.428C130.587 110.308 130.561 110.386 130.72 110.517V110.621ZM130.72 111.64C130.561 111.771 130.587 111.953 130.428 112.084H122.396C122.236 111.927 122.13 111.797 122.209 111.64V111.535C122.156 111.483 122.156 111.379 122.209 111.327C122.263 111.3 122.316 111.274 122.369 111.3H130.428C130.587 111.248 130.561 111.405 130.72 111.535V111.64V111.64ZM126.305 112.685C126.305 112.815 126.305 112.868 126.172 112.868H122.449C122.289 112.868 122.209 112.815 122.209 112.685V112.58C122.209 112.45 122.316 112.345 122.449 112.345H126.146C126.305 112.345 126.279 112.45 126.279 112.58L126.305 112.685ZM111.039 108.558C111.145 108.688 111.092 108.793 110.933 108.688H102.874C102.768 108.767 102.635 108.741 102.581 108.662C102.555 108.636 102.555 108.61 102.528 108.558V108.453C102.581 108.297 102.714 108.192 102.874 108.166H110.906C111.066 108.218 111.119 108.323 111.012 108.453L111.039 108.558ZM111.039 109.576C111.145 109.707 111.092 109.838 110.933 109.733H102.874C102.714 109.864 102.581 109.733 102.528 109.576V109.472C102.555 109.341 102.714 109.237 102.874 109.211H110.906C111.066 109.263 111.119 109.341 111.012 109.472L111.039 109.576ZM111.039 110.621C111.145 110.752 111.092 110.909 110.933 110.778H102.874C102.714 110.909 102.581 110.778 102.528 110.621V110.517C102.555 110.386 102.714 110.308 102.874 110.256H110.906C111.066 110.308 111.119 110.386 111.012 110.517L111.039 110.621ZM108.645 111.3H110.933C111.092 111.248 111.145 111.405 111.039 111.535V111.64C111.145 111.771 111.092 111.953 110.933 112.084H102.874C102.714 111.98 102.608 111.823 102.528 111.64V111.535C102.555 111.379 102.714 111.274 102.874 111.3H108.645ZM107.05 112.685C107.05 112.815 106.97 112.868 106.81 112.868H102.821C102.661 112.868 102.528 112.815 102.528 112.685V112.58C102.555 112.45 102.688 112.345 102.821 112.345H106.81C106.943 112.345 107.05 112.45 107.05 112.554V112.685V112.685Z" fill="#E9EDFB"/>
<path d="M20.2887 200.839C20.2887 200.839 22.6292 188.353 10.2885 181.666C-2.0255 174.979 -2.61062 175.057 -5.05747 174.3C-6.46706 173.83 -7.90326 174.822 -6.28089 176.808C-4.65852 178.819 -5.58939 179.315 -2.34466 180.203C0.900078 181.091 1.37881 184.957 3.00118 185.924C4.62354 186.89 6.03314 187.151 10.98 189.241C15.4748 191.148 19.3046 196.529 19.3046 198.409C19.3046 200.29 23.693 200.943 23.693 200.943L20.2887 200.839V200.839Z" fill="url(#paint6_linear_2_319)"/>
<path d="M19.8632 199.088C19.8632 199.088 23.0015 187.595 12.2035 181.379C1.40541 175.162 -2.34465 175.24 -4.49894 174.483C-5.72237 174.039 -2.37125 175.554 -0.961652 177.382C0.447946 179.237 0.102195 178.819 2.62883 180.177C5.55441 181.77 6.77784 183.312 8.50659 183.625C11.0066 184.095 10.2619 186.655 14.5971 188.562C18.5068 190.312 19.0121 194.988 19.0121 196.738C19.0121 198.514 22.8419 199.088 22.8419 199.088H19.8632V199.088Z" fill="url(#paint7_linear_2_319)"/>
<path d="M30.7144 197.391L31.9378 196.241C32.5229 195.719 33.241 195.327 34.0123 195.118C37.8156 194.126 49.8104 190.443 54.7839 181.535C54.8371 181.457 54.7839 181.353 54.7041 181.326H54.6775C54.6509 181.326 54.6243 181.3 54.6243 181.3C52.9754 181.17 44.438 181.039 33.0282 190.599C32.8155 190.756 32.6293 190.965 32.4697 191.148C32.1772 191.54 31.6984 192.219 31.4857 192.558C31.1931 193.081 31.7782 193.943 30.9803 194.7C30.1825 195.458 28.4537 197.365 28.4537 197.365L29.8633 198.383L30.7144 197.391V197.391Z" fill="url(#paint8_linear_2_319)"/>
<path d="M24.2249 196.659C24.2249 196.659 27.4962 167.9 18.5599 158.863C10.3417 150.556 10.2087 158.183 10.2353 159.489C10.2353 159.62 10.2885 159.698 10.3151 159.803C12.2566 163.355 12.9215 167.456 12.23 171.427C11.379 175.58 17.4429 175.031 17.9748 179.132C18.5067 183.233 20.6078 189.554 20.3951 192.454C20.1823 195.353 20.1557 198.174 20.1557 198.174L23.4536 198.279L24.2249 196.659V196.659Z" fill="url(#paint9_linear_2_319)"/>
<path d="M24.1983 196.738C24.2249 196.685 24.2515 196.607 24.2515 196.529C24.4643 194.648 27.2037 167.561 18.5865 158.836C10.4215 150.556 10.2885 158.053 10.3417 159.411C10.3683 159.568 10.4481 159.725 10.5279 159.855C11.1396 160.717 13.8258 164.479 16.2195 164.061C22.8419 162.911 16.9908 170.721 20.5813 174.901C23.4536 178.192 22.4962 189.581 22.2834 192.506C22.1504 194.152 21.8579 195.771 21.4323 197.365C21.3525 197.782 21.6451 198.174 22.044 198.253H22.0972C22.1504 198.253 22.2036 198.279 22.2568 198.279H22.8685C23.2409 198.305 23.56 198.122 23.7196 197.809L24.1983 196.738V196.738Z" fill="url(#paint10_linear_2_319)"/>
<path d="M27.4165 198.409C27.4165 198.409 28.0016 190.443 32.7357 185.584C34.0655 184.252 35.7411 183.338 37.5762 182.92C38.9858 182.606 41.2997 181.483 43.321 177.748C43.321 177.748 47.1242 172.445 50.9541 170.852C54.7573 169.232 50.9541 169.05 50.9541 169.05C50.9541 169.05 40.0497 171.087 33.0549 177.356C32.6027 177.748 32.1506 178.114 31.6453 178.427C29.8367 179.655 24.81 184.226 25.0228 197.626L27.4165 198.409V198.409Z" fill="url(#paint11_linear_2_319)"/>
<g filter="url(#filter0_d_2_319)">
<path d="M36.8847 197.782C36.8847 197.782 37.0443 196.816 35.7411 196.842C34.5974 196.894 15.3418 196.738 15.3418 196.738C15.3418 196.738 14.4375 196.738 14.4907 197.417C14.5439 198.096 17.4695 213.847 17.7355 214.16C17.8684 214.369 18.0546 214.526 18.294 214.578C18.6663 214.683 32.1772 214.604 32.1772 214.604C32.4963 214.552 32.7357 214.317 32.7623 214.003C32.7623 214.003 36.9113 197.965 36.8847 197.782" fill="url(#paint12_linear_2_319)"/>
</g>
<path d="M235.429 207.581C234.711 204.604 234.472 200.79 233.993 200.712H233.461L228.381 200.764C228.381 200.764 227.318 205.518 226.786 207.503C226.732 207.634 226.653 207.973 226.546 208.208C226.44 208.548 226.44 208.914 226.44 209.253C226.546 211.055 227.264 212.597 228.887 213.406C230.722 214.294 232.105 215.156 233.967 213.406C235.855 211.63 236.147 210.559 235.429 207.581V207.581ZM219.339 201.182L212.902 201.521C212.902 201.521 210.349 205.857 206.626 206.902C203.115 207.895 197.317 210.298 199.897 211.656C201.812 212.753 214.206 211.761 217.211 211.996C219.472 212.179 220.083 210.82 219.844 207.843C219.684 205.596 219.339 201.182 219.339 201.182Z" fill="#020202"/>
<path d="M211.626 122.271C211.626 122.271 207.317 157.142 207.025 159.415C206.732 161.687 208.514 173.311 208.514 175.531C208.514 177.751 212.743 201.547 212.743 201.547L219.472 201.26C219.472 201.26 218.115 166.232 218.275 164.534C218.408 162.837 225.775 142.515 225.775 142.515C225.775 142.515 226.307 147.896 226.307 149.593C226.307 151.291 228.328 200.842 228.328 200.842H234.179L242.477 127.861L242.344 126.45L211.626 122.271V122.271Z" fill="url(#paint13_linear_2_319)"/>
<path d="M231.387 54.9057C231.387 54.9057 224.95 57.3611 223.514 57.9096C222.078 58.4843 221.254 60.2083 221.254 60.2083C221.254 60.2083 220.535 59.7903 220.535 60.9658C220.535 62.1412 221.121 64.8316 221.599 65.5369C222.371 66.7123 223.036 67.8877 223.674 69.1154C224.259 70.3431 224.046 72.8768 223.434 73.2686C222.823 73.6343 211.972 83.2728 211.972 83.2728L202.929 110.569L204.126 119.189L205.961 127.678C205.961 127.678 205.588 128.279 206.333 129.01C207.104 129.715 210.376 134.992 210.376 134.992L211.493 127.208L207.796 115.663L206.493 105.946L215.136 88.6015L245.084 93.8256L248.355 112.737L242.291 128.853L241.227 136.716L246.307 132.328C246.6 132.092 247.158 130.865 247.451 130.212L250.483 121.827L252.743 108.427C252.743 108.427 233.834 74.9665 232.876 72.9813C232.451 72.0932 232.929 69.9252 233.169 68.8281C233.408 67.8355 233.887 66.5556 234.366 66.1899C235.084 65.4324 235.429 64.3614 235.616 63.3689C235.616 62.6636 235.908 59.9209 235.19 60.6001C235.057 60.7829 234.525 59.947 234.286 58.85C233.834 57.2566 232.69 55.9245 231.387 54.9057V54.9057Z" fill="url(#paint14_linear_2_319)"/>
<path d="M228.94 82.2019C228.461 82.6198 227.743 82.5676 227.317 82.1497C226.972 81.6272 226.653 81.1048 226.413 80.5824C225.934 79.6421 222.238 74.3134 222.238 74.3134C222.238 74.3134 213.461 76.5337 212.051 77.4218C210.615 78.3622 209.312 79.6421 208.833 81.2877C208.354 82.9333 201.572 102.315 201.253 103.49C200.907 104.666 199.179 106.546 200.003 111.327C200.828 116.107 205.376 128.305 205.854 128.436C206.333 128.566 211.174 126.215 211.174 126.215C211.174 126.215 207.344 111.039 207.344 109.524C207.344 108.009 210.801 103.725 212.184 100.8C213.567 97.8743 214.578 95.3406 215.057 94.0607C215.535 92.7808 210.934 119.293 210.934 119.293C210.934 119.293 210.828 124.1 211.759 124.57C212.61 124.988 222.929 128.854 225.349 129.768C225.589 129.872 225.881 129.715 226.014 129.48L227.557 125.197C227.557 125.144 227.61 125.092 227.663 125.144C227.716 125.144 227.716 125.197 227.716 125.197L229.153 129.872C229.206 130.107 229.498 130.238 229.738 130.212L242.451 127.521C242.451 127.521 242.265 104.483 242.504 100.617C242.69 96.8556 242.211 94.7137 242.929 95.7586C243.701 96.8817 246.919 107.252 246.919 109.002C246.919 110.752 243.328 126.059 243.328 126.059L248.089 128.645C248.089 128.645 254.525 111.823 254.845 109.603C255.19 107.382 255.323 106.207 254.259 103.987C253.196 101.766 247.344 81.6534 247.344 81.6534C247.344 81.6534 246.759 79.198 242.451 77.9181C238.142 76.6382 234.924 74.7575 234.153 74.8097C233.381 74.862 230.988 79.2764 229.924 80.6085C229.419 81.1048 229.525 81.3399 228.94 82.2019V82.2019Z" fill="url(#paint15_linear_2_319)"/>
<path d="M231.334 54.9319C231.334 54.9319 224.073 57.5178 222.61 58.6149C221.493 59.4246 221.254 60.1821 221.254 60.1821C221.254 60.1821 220.482 59.8426 220.536 60.9396C220.589 62.0367 219.684 59.2418 219.418 58.3537C219.232 57.4656 219.179 54.958 221.147 53.1295C223.115 51.3011 225.27 49.9167 227.105 50.0212C228.94 50.1257 230.429 50.6219 231.865 52.0063C233.302 53.3646 233.647 53.2863 233.94 53.4169C234.233 53.5475 235.722 55.1147 235.908 56.8126C236.094 58.5104 235.562 61.018 235.562 61.018C235.562 61.018 235.217 60.6523 234.844 60.9135C234.472 61.1747 234.366 59.3201 233.115 56.9954C232.211 55.2714 231.334 54.9319 231.334 54.9319V54.9319Z" fill="url(#paint16_linear_2_319)"/>
<path opacity="0.07" d="M226.732 138.936C225.908 141.287 222.69 145.91 220.589 148.705C218.488 151.474 211.998 157.325 212.424 164.456C212.849 171.587 217.211 189.924 217.211 191.569C217.211 193.215 215.589 200.999 214.339 203.402C213.089 205.805 212.503 210.089 213.142 210.089C214.285 210.037 215.482 209.906 216.652 209.619C217.716 209.384 218.754 209.149 219.764 208.809C220.19 208.626 220.296 207.242 220.296 207.242C220.349 206.667 220.243 206.066 220.11 205.544C219.817 204.656 219.578 203.742 219.445 202.853C219.206 196.167 218.594 180.651 218.727 179.554C218.966 177.516 217.291 167.303 218.833 162.262C220.349 157.247 226.732 138.936 226.732 138.936V138.936ZM211.174 126.215L210.057 134.6C210.057 134.6 211.174 136.35 211.493 134.887C211.839 133.425 214.126 130.682 212.69 128.723C211.253 126.764 211.174 126.215 211.174 126.215V126.215ZM242.371 128.54L241.999 132.537L241.52 136.402C241.52 136.402 239.898 137.578 239.924 136.063C239.977 134.548 237.185 132.301 239.312 130.786C241.44 129.271 242.371 128.54 242.371 128.54V128.54ZM222.184 74.3657C222.477 74.3134 220.801 74.7314 222.291 74.2612C224.844 73.4514 223.78 68.7497 223.78 68.7497C223.78 68.7497 224.02 70.4998 226.413 71.2051C228.807 71.9103 229.445 71.3879 225.828 73.0335C222.238 74.6791 224.099 75.2538 224.339 77.4218M214.977 95.6802L210.934 119.711C210.934 119.711 210.987 123.995 211.759 124.622C212.53 125.223 215.11 125.667 215.695 126.085C216.28 126.503 222.504 128.54 220.881 125.092C220.509 124.335 212.104 119.711 215.855 114.853C219.605 109.994 218.913 103.307 217.158 98.6318C216.094 95.8892 215.562 92.9636 215.722 90.0642L214.977 95.6802Z" fill="black"/>
</g>
<defs>
<filter id="filter0_d_2_319" x="10.4885" y="196.738" width="30.4024" height="25.8948" filterUnits="userSpaceOnUse" color-interpolation-filters="sRGB">
<feFlood flood-opacity="0" result="BackgroundImageFix"/>
<feColorMatrix in="SourceAlpha" type="matrix" values="0 0 0 0 0 0 0 0 0 0 0 0 0 0 0 0 0 0 127 0" result="hardAlpha"/>
<feOffset dy="4"/>
<feGaussianBlur stdDeviation="2"/>
<feComposite in2="hardAlpha" operator="out"/>
<feColorMatrix type="matrix" values="0 0 0 0 0 0 0 0 0 0 0 0 0 0 0 0 0 0 0.25 0"/>
<feBlend mode="normal" in2="BackgroundImageFix" result="effect1_dropShadow_2_319"/>
<feBlend mode="normal" in="SourceGraphic" in2="effect1_dropShadow_2_319" result="shape"/>
</filter>
<linearGradient id="paint0_linear_2_319" x1="276.198" y1="144.759" x2="276.198" y2="174.84" gradientUnits="userSpaceOnUse">
<stop stop-color="#BAC6F2"/>
<stop offset="1" stop-color="#BAC6F2" stop-opacity="0"/>
</linearGradient>
<linearGradient id="paint1_linear_2_319" x1="102.522" y1="93.403" x2="111.831" y2="93.403" gradientUnits="userSpaceOnUse">
<stop stop-color="#F71D69"/>
<stop offset="1" stop-color="#F8C648"/>
</linearGradient>
<linearGradient id="paint2_linear_2_319" x1="102.522" y1="98.8883" x2="130.714" y2="98.8883" gradientUnits="userSpaceOnUse">
<stop stop-color="#93FD94"/>
<stop offset="1" stop-color="#21C4C0"/>
</linearGradient>
<linearGradient id="paint3_linear_2_319" x1="102.522" y1="105.157" x2="111.299" y2="105.157" gradientUnits="userSpaceOnUse">
<stop stop-color="#93FD94"/>
<stop offset="1" stop-color="#21C4C0"/>
</linearGradient>
<linearGradient id="paint4_linear_2_319" x1="112.097" y1="105.157" x2="120.873" y2="105.157" gradientUnits="userSpaceOnUse">
<stop stop-color="#93FD94"/>
<stop offset="1" stop-color="#21C4C0"/>
</linearGradient>
<linearGradient id="paint5_linear_2_319" x1="121.937" y1="105.157" x2="130.714" y2="105.157" gradientUnits="userSpaceOnUse">
<stop stop-color="#93FD94"/>
<stop offset="1" stop-color="#21C4C0"/>
</linearGradient>
<linearGradient id="paint6_linear_2_319" x1="-6.96388" y1="187.54" x2="23.7534" y2="187.54" gradientUnits="userSpaceOnUse">
<stop stop-color="#93FD93"/>
<stop offset="0.51" stop-color="#21C2C1"/>
<stop offset="1" stop-color="#84F599"/>
</linearGradient>
<linearGradient id="paint7_linear_2_319" x1="4.54562" y1="178.012" x2="21.6224" y2="199.33" gradientUnits="userSpaceOnUse">
<stop stop-color="#93FD93"/>
<stop offset="0.51" stop-color="#21C2C1"/>
<stop offset="1" stop-color="#84F599"/>
</linearGradient>
<linearGradient id="paint8_linear_2_319" x1="24.643" y1="201.777" x2="48.3127" y2="183.129" gradientUnits="userSpaceOnUse">
<stop stop-color="#93FD93"/>
<stop offset="0.51" stop-color="#21C2C1"/>
<stop offset="1" stop-color="#84F599"/>
</linearGradient>
<linearGradient id="paint9_linear_2_319" x1="30.6753" y1="192.516" x2="10.5218" y2="166.539" gradientUnits="userSpaceOnUse">
<stop stop-color="#93FD93"/>
<stop offset="0.51" stop-color="#21C2C1"/>
<stop offset="1" stop-color="#84F599"/>
</linearGradient>
<linearGradient id="paint10_linear_2_319" x1="10.3268" y1="176.637" x2="24.8273" y2="176.637" gradientUnits="userSpaceOnUse">
<stop stop-color="#93FD93"/>
<stop offset="0.51" stop-color="#21C2C1"/>
<stop offset="1" stop-color="#84F599"/>
</linearGradient>
<linearGradient id="paint11_linear_2_319" x1="23.5845" y1="199.905" x2="38.9115" y2="177.336" gradientUnits="userSpaceOnUse">
<stop stop-color="#93FD93"/>
<stop offset="0.51" stop-color="#21C2C1"/>
<stop offset="1" stop-color="#84F599"/>
</linearGradient>
<linearGradient id="paint12_linear_2_319" x1="14.529" y1="205.671" x2="36.9092" y2="205.671" gradientUnits="userSpaceOnUse">
<stop stop-color="#F8C547"/>
<stop offset="1" stop-color="#F71D69"/>
</linearGradient>
<linearGradient id="paint13_linear_2_319" x1="206.978" y1="161.904" x2="242.432" y2="161.904" gradientUnits="userSpaceOnUse">
<stop stop-color="#4F68CA"/>
<stop offset="1" stop-color="#5ACEED"/>
</linearGradient>
<linearGradient id="paint14_linear_2_319" x1="202.929" y1="95.8145" x2="252.751" y2="95.8145" gradientUnits="userSpaceOnUse">
<stop stop-color="#F87B58"/>
<stop offset="0.41" stop-color="#F89453"/>
<stop offset="0.71" stop-color="#F8C548"/>
<stop offset="1" stop-color="#F89C51"/>
</linearGradient>
<linearGradient id="paint15_linear_2_319" x1="199.785" y1="102.253" x2="255.145" y2="102.253" gradientUnits="userSpaceOnUse">
<stop stop-color="#FD0675"/>
<stop offset="1" stop-color="#F80606"/>
</linearGradient>
<linearGradient id="paint16_linear_2_319" x1="219.353" y1="55.5841" x2="236" y2="55.5841" gradientUnits="userSpaceOnUse">
<stop stop-color="#0C0C0E"/>
<stop offset="1" stop-color="#B91983"/>
</linearGradient>
<clipPath id="clip0_2_319">
<rect width="327" height="222" fill="white"/>
</clipPath>
</defs>
</svg>
